<svg xmlns="http://www.w3.org/2000/svg" viewBox="0 0 460.7 216.84">
    <path d="M283.77,38.79c-1.63,.9-3.64,2.24-5.58,4.24-4.29,4.41-5.75,9.42-6.3,11.94,2.32-3.6,10.03-14.56,23.93-18.3,8.72-2.35,16.74-1,20.09-.42,13.12,2.25,23.5,9.18,31.65,19.74-.2,0-.31,.02-.42,0-2.65-.42-5.31-.57-7.99-.45-2.27,.09-4.51,.39-6.71,.91-2.33,.55-4.57,1.35-6.75,2.36-.13,.06-.57,.29-1.1,.57,0,0-1.46,.76-2.82,1.52-1.97,1.1-2.87,1.81-4.57,2.83-1.41,.95-3.31,2.01-5.7,2.81-4.52,1.5-8.49,1.28-10.8,.96,7.15,2.89,11.26,2.15,13.75,.74,2.44-1.38,4.23-3.64,8.06-4.6,.99-.25,2.6-.45,4.81,.17-.8,.41-1.57,.77-2.3,1.19-1.62,.94-2.98,2.17-4.11,3.68-1.21,1.6-2.1,3.37-2.84,5.21-.54,1.35-.97,2.75-1.4,4.14-.68,2.19-1.3,4.4-2,6.58-.58,1.82-1.21,3.63-1.88,5.42-.79,2.11-1.82,4.1-2.99,6.02-1.45,2.37-3.19,4.5-5.22,6.4-1.96,1.84-4.14,3.37-6.55,4.59-2.35,1.19-4.79,2.16-7.34,2.77-1.7,.4-3.44,.63-5.18,.81-1.23,.13-2.48,.13-3.71,.08-2.46-.11-4.91-.43-7.25-1.2-2.02-.67-3.98-1.48-5.96-2.35,1.43,.26,4.34,.59,7.64-.58,2.61-.93,4.25-2.38,5.49-3.51,3.8-3.44,5.77-7.55,6.81-10.53-1.79,2.19-4.78,5.21-9.25,7.43-1.73,.86-5.34,2.61-10.24,2.72-2.15,.05-4.8,.08-7.5-1.44-1.61-.91-2.84-2-3.79-3.18-1.14-1.41-2.28-2.82-3.31-4.3-1.66-2.4-2.93-5.02-3.9-7.77-.87-2.45-1.47-4.97-1.75-7.56-.12-1.11-.24-2.22-.22-3.33,.04-1.96,.08-3.93,.31-5.88,.32-2.73,1.05-5.37,2.05-7.94,.74-1.89,1.57-3.73,2.64-5.46,1.38-2.21,2.94-4.29,4.75-6.17,1.94-2.02,4.05-3.83,6.41-5.33,2.29-1.46,4.69-2.74,7.29-3.54,1.36-.42,3.39-1.21,6.21-1.64,2.23-.34,4.15-.37,5.57-.32Z" fill="#d32f2f" fill-rule="evenodd"/>
    <path class="cls-1" d="M211.92,193.87c-13.83-10.08-27.66-20.86-38.21-34.69,11.96-20.39,24.15-58.61,26.02-94.47h10.78c6.8,0,9.61-3.75,9.61-9.61s-2.81-9.38-9.61-9.38h-64c3.28-9.38,9.61-29.77,9.61-35.16,0-6.1-4.22-9.38-11.25-9.38-4.22,0-7.74,2.11-9.38,9.14-6.56,26.96-13.83,52.28-29.77,78.53-3.52,5.86-6.8,9.85-6.8,13.6,0,5.63,4.92,9.61,10.55,9.61,6.56,0,10.55-7.27,15.94-16.64,3.05,16.64,10.08,40.32,24.38,63.29-5.39,7.03-21.57,24.15-47.35,38.21-3.99,2.34-6.8,5.16-6.8,9.38,0,5.63,4.45,10.55,9.85,10.55,3.98,0,7.5-1.88,11.49-4.45,20.86-13.13,35.16-26.02,44.77-37.51,9.85,12.42,37.04,39.85,49.23,39.85,4.92,0,9.61-4.22,9.61-10.55,0-4.22-4.22-7.27-8.67-10.31Zm-50.4-51.34c-8.2-12.66-19.93-45.24-22.74-75.48,.23-.7,.7-1.41,1.17-2.34h41.26c-3.28,43.6-16.64,72.2-19.69,77.83Z" fill="#171717" fill-rule="evenodd"/>
    <path class="cls-1" d="M78.3,81.34h-30.01c.23-5.39,1.17-19.93,1.41-31.65h49.7c6.33,0,9.14-3.75,9.14-9.38s-2.81-9.14-9.14-9.14H63.76V9.61c0-6.8-3.98-9.61-9.85-9.61s-9.61,2.81-9.61,9.61V31.18H13.83c-6.33,0-9.14,3.75-9.14,9.14,.23,5.63,2.81,9.38,9.38,9.38H31.41c-.94,55.56-5.16,107.37-27.19,143.94-2.34,3.75-4.22,7.03-4.22,10.31,0,5.16,4.69,9.14,10.31,9.14,7.74,0,11.96-7.27,21.1-30.71,11.49-32.12,14.53-66.81,15.71-82.28h21.8c5.86,0,6.56,1.17,6.56,5.86,0,23.44-1.64,42.2-3.99,67.51-2.11,21.57-4.22,21.8-8.2,21.8-2.34,0-13.36-1.41-15.71-1.41-5.39,0-8.21,3.99-8.21,9.85,0,6.33,5.63,10.08,24.15,10.08,14.53,0,20.16-4.22,22.74-15.47,3.05-13.6,7.74-56.26,7.74-96.35,0-12.42-1.41-20.63-15.71-20.63Z" fill="#171717" fill-rule="evenodd"/>
    <path class="cls-1" d="M391.07,37.78c-11.02-.39-17.38,.4-30.13,2.66-5.9,1.05-15.56,3.08-15.8,6.5-.19,2.73,5.8,4.06,5.94,8.09,.14,3.83-5.15,5.82-4.46,7.76,.78,2.19,8.18,1.48,13.21,.99,6.01-.58,9.76-1.46,17.27-2.86,6.58-1.22,8.67-1.8,12.08-2.04,2.43-.17,23.64-1.21,37.79,13.67,8.24,8.66,11.44,20.21,11.44,30.87,0,27.19-18.05,41.96-26.25,47.59-23.21,16.64-55.79,19.93-72.91,21.57-7.5,.7-11.25,4.69-11.25,11.72s5.16,11.25,12.66,11.25c20.63,0,56.96-10.55,73.37-19.46,39.62-21.57,46.65-52.74,46.65-72.44,0-71.98-52.47-65.26-69.62-65.87Z" fill="#171717" fill-rule="evenodd"/>
</svg>
